
        <svg xmlns="http://www.w3.org/2000/svg" xmlns:xlink="http://www.w3.org/1999/xlink" version="1.1" width="3162.1110478539827" height="871.4540687491641" viewBox="0 0 3162.1110478539827 871.4540687491641">
			
			<g transform="scale(8.105552392699138) translate(10, 10)">
				<defs id="SvgjsDefs1353"/><g id="SvgjsG1354" featureKey="HKaMnE-0" transform="matrix(1.1940323988020514,0,0,1.1940323988020514,5.068583877898467,5.81633706326998)" fill="#000"><path xmlns="http://www.w3.org/2000/svg" d="M73.809,26.056c-2.449-3.715-8.215-7.575-15.74-9.746c-1.234-1.34-2.746-2.279-4.462-2.682  c-3.909-0.917-7.962-1.383-12.044-1.383c-0.609,0-1.211,0.021-1.813,0.041c-0.438-1.698-1.107-2.666-2.523-2.849  c-3.115-0.402-10.673,0.938-15.354,3.314c-3.4,1.725-11.435,6.318-12.615,11.709c-0.216,0.983,0.139,1.725,0.796,2.477  C7.47,30.312,5.363,33.992,3.46,37.68c-1.091,2.115-1.285,4.542-0.646,6.979c-2.231,6.898-2.467,13.411-1.478,17.567  c1.331,5.592,4.384,6.195,5.635,6.195c5.942,0,9.604-4.771,13.844-10.294c0.955-1.243,1.942-2.526,2.99-3.807  c0.685-0.346,1.355-0.749,2.008-1.215c1.206-0.861,2.401-1.672,3.589-2.438c0.762,0.919,1.331,1.359,1.973,1.549l0.561,0.166  l0.562-0.163c3.279-0.949,9.564-4.108,13.068-6.917l0.344-0.275l0.195-0.396c0.234-0.47,0.328-0.828,0.113-1.983  c1.716-0.554,3.475-1.067,5.289-1.518c1.442-0.358,2.699-0.919,3.795-1.626c0.674-0.053,1.342-0.102,1.998-0.149  c8.002-0.583,14.913-1.086,17.51-7.146C75.357,30.927,75.631,28.818,73.809,26.056z M7.015,39.514  c1.876-3.638,3.788-6.917,5.942-9.803c0.553,0.532,1.176,1.149,1.88,1.885c1.917,2.005,4.405,4.854,7.534,9.025  c1.244,1.658,2.562,3.625,3.725,5.36c0.006,0.01,0.012,0.019,0.019,0.028c0.341,0.509,0.655,0.976,0.948,1.408  c-1.184,0.768-2.374,1.576-3.574,2.433c-0.701,0.5-1.426,0.902-2.172,1.212c-1.185,0.49-2.423,0.74-3.702,0.74  c-3.828,0-7.81-2.313-9.908-5.757c-0.236-0.387-0.5-0.882-0.727-1.448C6.414,43.188,6.08,41.328,7.015,39.514z M31.468,46.761  c-0.318-0.45-0.656-0.941-0.995-1.44c-0.364-0.535-0.726-1.075-1.055-1.566c-0.065-0.097-0.135-0.2-0.201-0.298  c-1.142-1.703-2.411-3.587-3.647-5.235c-3.259-4.345-5.861-7.321-7.87-9.419c-0.83-0.866-1.555-1.579-2.187-2.18  c-0.232-0.222-0.453-0.43-0.66-0.621c-0.282-0.262-0.541-0.5-0.775-0.714c-0.006-0.006-0.013-0.012-0.02-0.018  c-0.229-0.211-0.473-0.434-0.671-0.623c1.065-2.42,5.044-5.664,10.293-8.328c3.79-1.923,9.535-2.949,12.24-2.953  c0.072,0.312,0.145,0.722,0.219,1.188c0.047,0.299,0.094,0.62,0.141,0.956c0.047,0.333,0.094,0.679,0.14,1.027  c0.02,0.15,0.04,0.301,0.06,0.451c0.099,0.742,0.211,1.581,0.341,2.495c0.426,2.985,1.063,6.852,2.206,11.423  c0.471,1.878,1.064,4.063,1.623,6.118c0.068,0.251,0.138,0.507,0.209,0.767c0.205,0.756,0.415,1.534,0.611,2.272  c0.15,0.564,0.291,1.105,0.414,1.591c0.031,0.123,0.059,0.234,0.088,0.35c0.077,0.312,0.148,0.604,0.203,0.847  c-2.824,2.033-7.023,4.186-9.764,5.186c-0.226-0.281-0.5-0.652-0.795-1.064C31.569,46.901,31.52,46.833,31.468,46.761z   M55.752,19.809c1.12,1.632,1.803,3.969,1.819,6.616c0.021,3.142-1.007,6.939-3.739,9.185c-0.902,0.742-1.99,1.315-3.29,1.638  c-1.808,0.448-3.562,0.961-5.278,1.509c-0.153-0.572-0.325-1.21-0.518-1.919c-0.076-0.281-0.15-0.558-0.234-0.862  c-0.551-2.028-1.138-4.185-1.602-6.039c-1.117-4.469-1.722-8.151-2.141-11.104c-0.119-0.848-0.227-1.644-0.322-2.37  c-0.01-0.067-0.018-0.124-0.026-0.19c0.38-0.009,0.758-0.025,1.142-0.025c3.775,0,7.52,0.43,11.13,1.277  C53.891,17.804,54.937,18.62,55.752,19.809z M6.971,64.421c-0.416,0-1.231-0.969-1.744-3.121c-0.676-2.843-0.691-6.936,0.261-11.475  c2.965,3.668,7.505,5.957,12.07,5.976C13.854,60.625,10.911,64.421,6.971,64.421z M71.132,30.633  c-1.401,3.27-5.245,4.013-11.774,4.551c1.587-2.747,2.232-5.967,2.214-8.785c-0.011-1.752-0.257-3.398-0.69-4.898  c4.779,1.978,8.166,4.601,9.588,6.758C71.117,29.239,71.358,30.105,71.132,30.633z"/></g><g id="SvgjsG1355" featureKey="J3GnXt-0" transform="matrix(3.1991751801856645,0,0,3.1991751801856645,108.93601503193011,15.155827591074486)" fill="#000"><path d="M5.3 4.640000000000001 c0.53334 0 0.97998 0.04666 1.34 0.14 l-0.2 1.6 c-0.29334 -0.12 -0.63334 -0.18 -1.02 -0.18 c-0.54666 0 -0.94 0.15 -1.18 0.45 s-0.36 0.83 -0.36 1.59 l0 2.28 l2.14 0 l0 1.56 l-2.16 0 l0 7.92 l-1.8 0 l0 -7.92 l-2.04 0 l0 -1.56 l2.04 0 l0 -2.2 c0 -1.2667 0.25666 -2.1966 0.77 -2.79 s1.3367 -0.89 2.47 -0.89 z M9.06 5.800000000000001 c0.36 0 0.67002 0.13002 0.93002 0.39002 s0.39 0.57 0.39 0.93 c0 0.37334 -0.13334 0.68668 -0.4 0.94002 s-0.57332 0.38 -0.91998 0.38 c-0.37334 0 -0.68668 -0.12666 -0.94002 -0.38 s-0.38 -0.56668 -0.38 -0.94002 s0.13334 -0.68668 0.4 -0.94002 s0.57332 -0.38 0.91998 -0.38 z M9.96 10.52 l0 9.48 l-1.8 0 l0 -9.48 l1.8 0 z M17.78 10.28 c1.0667 0 1.9033 0.32 2.51 0.96 s0.91666 1.5 0.93 2.58 l0 6.18 l-1.8 0 l0 -5.66 c0 -0.73334 -0.19 -1.3133 -0.57 -1.74 s-0.91 -0.64 -1.59 -0.64 c-0.84 0 -1.49 0.28 -1.95 0.84 s-0.69 1.3067 -0.69 2.24 l0 4.96 l-1.8 0 l0 -9.48 l1.8 0 l0 1.46 l0.04 0 c0.25334 -0.53334 0.66334 -0.95 1.23 -1.25 s1.1967 -0.45 1.89 -0.45 z M33.44 4.880000000000001 l-0.000019531 15.12 l-1.8 0 l0 -1.36 l-0.04 0 c-0.34666 0.50666 -0.81666 0.9 -1.41 1.18 s-1.2233 0.42 -1.89 0.42 c-1.4267 -0.01334 -2.5834 -0.48668 -3.47 -1.42 s-1.3367 -2.12 -1.35 -3.56 c0 -1.4533 0.44334 -2.64 1.33 -3.56 s2.05 -1.3933 3.49 -1.42 c0.65334 0 1.28 0.14 1.88 0.42 s1.0733 0.67334 1.42 1.18 l0.04 0 l0 -7 l1.8 0 z M25.400000000000002 15.26 c0 0.97334 0.28666 1.7633 0.86 2.37 s1.3267 0.91666 2.26 0.93 c0.94666 0 1.7033 -0.30334 2.27 -0.91 s0.85 -1.4033 0.85 -2.39 c0 -0.97334 -0.28 -1.7633 -0.84 -2.37 s-1.3267 -0.91666 -2.3 -0.93 c-0.93334 0 -1.6833 0.30666 -2.25 0.92 s-0.85 1.4067 -0.85 2.38 z M45.660000000000004 4.640000000000001 c0.53334 0 0.97998 0.04666 1.34 0.14 l-0.2 1.6 c-0.29334 -0.12 -0.63334 -0.18 -1.02 -0.18 c-0.54666 0 -0.94 0.15 -1.18 0.45 s-0.36 0.83 -0.36 1.59 l0 2.28 l2.14 0 l0 1.56 l-2.16 0 l0 7.92 l-1.8 0 l0 -7.92 l-2.04 0 l0 -1.56 l2.04 0 l0 -2.2 c0 -1.2667 0.25666 -2.1966 0.77 -2.79 s1.3367 -0.89 2.47 -0.89 z M52.96000000000001 10.28 c1.4 0 2.5866 0.48338 3.56 1.45 s1.4667 2.1434 1.48 3.53 c0 1.4 -0.48666 2.5734 -1.46 3.52 s-2.1666 1.4333 -3.58 1.46 c-1.3867 0 -2.5666 -0.48 -3.54 -1.44 s-1.4733 -2.14 -1.5 -3.54 c0 -1.3733 0.48334 -2.54 1.45 -3.5 s2.1634 -1.4533 3.59 -1.48 z M49.84000000000001 15.26 c0 0.97334 0.28664 1.7633 0.85998 2.37 s1.3267 0.91666 2.26 0.93 c0.94666 0 1.7 -0.30334 2.26 -0.91 s0.84666 -1.4033 0.86 -2.39 c0 -0.97334 -0.28 -1.7633 -0.84 -2.37 s-1.3267 -0.91666 -2.3 -0.93 c-0.94666 0 -1.7 0.31334 -2.26 0.94 s-0.84 1.4133 -0.84 2.36 z M64.84000000000002 10.28 c1.4 0 2.5866 0.48338 3.56 1.45 s1.4667 2.1434 1.48 3.53 c0 1.4 -0.48666 2.5734 -1.46 3.52 s-2.1666 1.4333 -3.58 1.46 c-1.3867 0 -2.5666 -0.48 -3.54 -1.44 s-1.4733 -2.14 -1.5 -3.54 c0 -1.3733 0.48334 -2.54 1.45 -3.5 s2.1634 -1.4533 3.59 -1.48 z M61.72000000000001 15.26 c0 0.97334 0.28664 1.7633 0.85998 2.37 s1.3267 0.91666 2.26 0.93 c0.94666 0 1.7 -0.30334 2.26 -0.91 s0.84666 -1.4033 0.86 -2.39 c0 -0.97334 -0.28 -1.7633 -0.84 -2.37 s-1.3267 -0.91666 -2.3 -0.93 c-0.94666 0 -1.7 0.31334 -2.26 0.94 s-0.84 1.4133 -0.84 2.36 z M81.64000000000001 4.880000000000001 l-0.000019531 15.12 l-1.8 0 l0 -1.36 l-0.04 0 c-0.34666 0.50666 -0.81666 0.9 -1.41 1.18 s-1.2233 0.42 -1.89 0.42 c-1.4267 -0.01334 -2.5834 -0.48668 -3.47 -1.42 s-1.3367 -2.12 -1.35 -3.56 c0 -1.4533 0.44334 -2.64 1.33 -3.56 s2.05 -1.3933 3.49 -1.42 c0.65334 0 1.28 0.14 1.88 0.42 s1.0733 0.67334 1.42 1.18 l0.04 0 l0 -7 l1.8 0 z M73.60000000000001 15.26 c0 0.97334 0.28666 1.7633 0.86 2.37 s1.3267 0.91666 2.26 0.93 c0.94666 0 1.7033 -0.30334 2.27 -0.91 s0.85 -1.4033 0.85 -2.39 c0 -0.97334 -0.28 -1.7633 -0.84 -2.37 s-1.3267 -0.91666 -2.3 -0.93 c-0.93334 0 -1.6833 0.30666 -2.25 0.92 s-0.85 1.4067 -0.85 2.38 z"/></g>
			</g>
		</svg>
	